<?xml version="1.0" standalone="no"?>
<!DOCTYPE svg PUBLIC "-//W3C//DTD SVG 20010904//EN"
 "http://www.w3.org/TR/2001/REC-SVG-20010904/DTD/svg10.dtd">
<svg version="1.0" xmlns="http://www.w3.org/2000/svg"
 width="800.000000pt" height="800.000000pt" viewBox="0 0 800.000000 800.000000"
 preserveAspectRatio="xMidYMid meet">
<metadata>
Created by potrace 1.14, written by Peter Selinger 2001-2017
</metadata>
<g transform="translate(0.000000,800.000000) scale(0.100000,-0.100000)"
fill="#000000" stroke="none">
<path d="M3784 7029 c-19 -27 -47 -128 -41 -151 4 -13 2 -51 -4 -86 -16 -88
-47 -101 -109 -44 -14 12 -44 39 -67 58 -24 20 -43 44 -43 53 0 11 -9 16 -30
16 -26 0 -30 -4 -29 -25 1 -14 -1 -32 -5 -41 -4 -10 -2 -20 3 -24 6 -3 9 -11
6 -16 -4 -5 -1 -9 4 -9 6 0 11 -9 11 -21 0 -11 4 -18 8 -15 15 9 31 -10 65
-79 23 -45 32 -74 26 -81 -5 -6 -42 -15 -82 -18 -39 -4 -93 -12 -119 -18 -49
-10 -95 -16 -139 -17 -29 -1 -47 -30 -27 -42 7 -4 42 -8 78 -8 223 1 280 -3
280 -17 0 -13 -27 -61 -78 -140 -20 -31 -34 -67 -42 -106 l-7 -37 34 3 c23 1
38 9 45 21 17 31 90 105 100 99 4 -3 8 8 8 25 0 16 4 32 9 35 11 7 5 -60 -11
-121 -6 -24 -15 -43 -19 -43 -5 0 -8 -6 -6 -12 1 -7 -4 -12 -11 -10 -10 2 -11
-2 -4 -14 7 -12 5 -29 -5 -53 -8 -19 -16 -42 -18 -50 -6 -30 -32 -71 -40 -63
-5 4 -5 2 -2 -5 12 -20 -11 -66 -30 -59 -14 6 -14 4 -2 -11 12 -15 12 -16 -4
-10 -11 4 -16 3 -12 -3 9 -14 -4 -52 -15 -45 -5 3 -8 -3 -7 -12 1 -23 -32 -75
-44 -67 -5 3 -9 2 -8 -3 4 -21 -2 -33 -18 -33 -9 0 -14 -3 -10 -6 13 -13 -61
-124 -82 -124 -6 0 -11 -5 -11 -11 0 -11 -57 -88 -75 -101 -5 -4 -6 -8 -1 -8
5 0 1 -9 -9 -20 -10 -11 -24 -20 -32 -20 -7 0 -13 -9 -13 -21 0 -12 -4 -17
-11 -14 -6 4 -9 1 -7 -7 3 -16 -41 -75 -50 -68 -4 3 -8 -5 -10 -17 -2 -12 -10
-27 -18 -33 -8 -7 -14 -17 -14 -22 0 -22 -45 -63 -65 -60 -17 4 -18 2 -6 -12
11 -13 10 -20 -11 -44 -13 -16 -30 -27 -38 -24 -12 3 -13 2 -1 -6 11 -8 10
-14 -4 -35 -9 -14 -23 -28 -31 -31 -9 -3 -13 -10 -9 -16 7 -12 -60 -82 -70
-72 -3 3 -3 -1 0 -10 6 -15 -1 -24 -69 -83 -20 -17 -50 -35 -68 -41 -10 -4
-18 -10 -18 -15 0 -5 -7 -9 -15 -9 -8 0 -15 -4 -15 -9 0 -5 -14 -14 -31 -21
-87 -36 90 -45 186 -10 33 13 70 23 82 22 13 0 21 4 18 8 -6 10 111 80 133 80
15 0 15 -2 2 -10 -8 -5 -10 -10 -5 -10 6 0 3 -6 -5 -13 -8 -7 -16 -20 -18 -30
-2 -10 -12 -33 -22 -50 -11 -18 -24 -43 -30 -56 -9 -20 -13 -21 -28 -10 -15
12 -15 11 1 -8 18 -20 18 -21 -2 -35 -12 -8 -18 -17 -15 -20 14 -15 -129 -245
-159 -254 -15 -5 -17 -8 -6 -15 10 -6 11 -9 2 -9 -7 0 -13 -6 -13 -13 0 -19
-37 -50 -49 -42 -10 5 -15 -8 -8 -19 1 -2 -6 -13 -16 -23 -9 -11 -15 -22 -12
-24 2 -3 -13 -25 -35 -48 -32 -35 -43 -41 -54 -31 -11 8 -14 8 -12 -2 1 -7 5
-18 9 -24 7 -13 -78 -101 -94 -96 -5 1 -8 -3 -7 -10 2 -6 -7 -17 -19 -23 -13
-7 -21 -14 -18 -17 3 -2 -9 -17 -25 -33 -17 -16 -30 -23 -30 -17 0 20 -18 14
-25 -8 -4 -11 -11 -18 -16 -15 -5 4 -9 0 -9 -7 0 -7 -3 -23 -6 -35 -8 -30 23
-37 81 -18 26 9 53 14 61 11 9 -3 14 1 15 12 0 10 3 12 6 5 2 -7 9 -13 14 -13
5 0 8 6 7 13 -2 8 7 11 27 10 18 -1 25 1 17 5 -8 6 1 15 28 30 22 11 42 17 45
12 6 -9 43 -2 51 11 3 5 -3 6 -12 2 -12 -4 -15 -3 -10 5 4 7 19 12 34 13 21 0
23 2 9 7 -15 6 -13 10 15 27 18 11 39 18 47 17 7 -2 10 1 7 6 -6 10 22 27 37
23 5 -1 6 3 2 9 -3 5 1 10 10 10 9 0 14 4 11 8 -9 14 51 52 71 46 12 -4 14 -3
5 3 -9 7 -6 15 13 33 14 13 25 18 25 11 0 -7 5 -9 11 -5 17 10 2 -46 -17 -67
-8 -9 -14 -21 -12 -26 5 -16 -47 -103 -59 -99 -6 3 -10 -3 -8 -12 3 -23 -14
-54 -25 -47 -6 3 -7 0 -4 -8 3 -8 -3 -20 -12 -28 -16 -12 -17 -12 -11 4 4 12
3 16 -4 11 -6 -3 -8 -15 -6 -26 4 -14 1 -18 -9 -14 -7 3 -13 2 -12 -2 5 -17
-15 -52 -29 -52 -9 0 -13 -3 -10 -7 4 -3 -5 -16 -18 -29 -14 -13 -25 -26 -25
-29 0 -15 -65 -85 -79 -86 -10 0 -11 -3 -4 -5 7 -3 9 -12 6 -20 -3 -7 -10 -11
-17 -7 -6 4 -6 0 2 -9 7 -9 9 -18 5 -20 -4 -1 -19 -25 -33 -51 -14 -27 -33
-54 -42 -61 -9 -6 -22 -24 -29 -38 -6 -15 -17 -24 -25 -21 -9 3 -11 -2 -7 -16
3 -14 0 -23 -11 -27 -9 -3 -16 -11 -16 -18 0 -17 -49 -86 -61 -86 -6 0 -7 6
-3 13 5 9 3 9 -7 -1 -11 -10 -11 -14 -1 -21 17 -10 -7 -31 -36 -34 -16 -1 -19
-5 -11 -19 7 -13 4 -21 -16 -34 -14 -9 -25 -21 -25 -26 0 -11 -120 -138 -130
-138 -4 0 -26 -18 -49 -41 -28 -26 -49 -38 -59 -34 -9 3 -13 3 -10 -1 9 -9
-24 -33 -84 -62 -27 -13 -48 -28 -48 -34 0 -6 43 -9 124 -6 68 1 122 6 120 9
-2 4 13 10 34 14 20 3 73 22 116 41 44 19 86 34 93 34 8 0 12 4 9 9 -3 4 18
19 46 33 44 22 54 24 66 12 19 -20 24 -17 12 5 -8 16 -5 23 23 43 17 13 34 23
37 23 5 0 48 36 76 63 15 15 44 16 44 2 0 -6 -7 -13 -15 -16 -9 -4 -13 -15
-11 -30 3 -13 0 -24 -5 -24 -5 0 -8 -3 -8 -7 4 -23 -2 -43 -11 -38 -6 3 -7 -1
-4 -10 4 -9 -1 -24 -10 -34 -9 -9 -19 -33 -23 -51 -7 -36 -40 -100 -58 -112
-5 -4 -6 -8 -2 -8 11 0 -48 -107 -81 -146 -42 -50 -62 -77 -62 -86 0 -4 -8 -4
-17 -1 -12 5 -15 2 -10 -10 3 -9 2 -17 -2 -17 -5 0 -11 6 -14 13 -2 6 -4 -4
-5 -23 -2 -65 -3 -71 -18 -77 -8 -3 -14 -12 -14 -20 0 -9 -6 -13 -15 -10 -8 4
-17 1 -21 -5 -4 -7 -3 -8 4 -4 22 13 12 -13 -16 -46 -16 -18 -37 -43 -47 -55
-15 -18 -22 -20 -33 -10 -12 9 -14 8 -10 -8 5 -26 -29 -64 -52 -60 -10 2 -21
-3 -24 -11 -3 -8 -1 -14 5 -14 6 0 7 -4 4 -10 -3 -5 -15 -10 -25 -10 -12 0
-17 -5 -14 -13 3 -8 -2 -20 -11 -27 -8 -7 -15 -10 -15 -6 0 3 -19 -15 -41 -39
-23 -25 -46 -42 -52 -38 -5 3 -7 2 -4 -4 5 -8 -25 -43 -38 -43 -3 0 -13 -8
-23 -18 -29 -27 -64 -55 -110 -86 -23 -16 -42 -33 -42 -38 0 -10 74 -4 175 14
33 6 71 11 85 11 14 1 30 7 35 13 6 6 22 14 37 18 15 3 40 11 55 18 15 6 30
12 33 13 3 0 33 13 67 29 34 16 64 27 67 25 3 -2 11 5 19 15 8 11 19 16 26 12
6 -4 14 0 17 8 3 9 10 13 15 10 5 -3 9 -1 9 5 0 11 60 47 73 43 4 -1 7 2 7 8
0 5 14 16 30 25 17 9 30 13 30 11 0 -3 12 6 26 21 14 14 27 23 30 20 8 -8 -18
-97 -28 -97 -6 0 -8 -6 -5 -14 3 -8 -2 -36 -11 -63 -17 -46 -33 -71 -78 -119
-12 -13 -20 -24 -18 -26 9 -9 -44 -83 -59 -82 -9 1 -15 -2 -12 -6 3 -4 -2 -11
-11 -14 -8 -3 -13 -9 -11 -13 2 -5 -4 -17 -14 -27 -11 -11 -19 -14 -19 -7 0 9
-5 9 -22 0 -20 -11 -21 -13 -5 -18 16 -6 16 -8 -3 -29 -12 -12 -26 -19 -32
-16 -7 5 -8 2 -4 -5 11 -17 86 -11 109 7 12 11 17 11 17 3 0 -7 5 -9 10 -6 6
4 8 10 5 14 -4 7 27 26 48 29 4 1 17 11 29 22 12 11 26 20 30 20 5 0 14 5 21
10 30 26 150 110 153 107 2 -2 25 16 50 40 26 23 51 40 57 36 5 -3 7 -1 4 4
-4 6 0 17 9 24 13 10 17 10 25 -2 8 -12 9 -12 7 2 -3 17 56 82 66 72 3 -4 6
-1 6 6 0 8 7 10 20 6 11 -4 20 -2 20 4 0 6 -5 11 -12 11 -6 0 -1 9 12 20 23
20 46 27 36 11 -3 -4 7 -6 22 -3 18 4 22 7 12 11 -19 8 -20 33 -1 39 9 3 11 0
6 -8 -6 -9 -3 -9 14 -1 23 13 28 2 9 -17 -9 -9 -8 -12 4 -12 11 0 15 -6 11
-21 -4 -16 -8 -17 -14 -7 -6 9 -9 9 -9 1 0 -6 5 -15 10 -18 7 -4 6 -14 -2 -28
-6 -12 -11 -23 -10 -24 8 -12 -1 -55 -14 -67 -8 -9 -11 -16 -5 -16 16 0 -67
-164 -86 -171 -11 -4 -13 -8 -5 -12 8 -5 6 -16 -6 -37 -9 -17 -20 -30 -24 -30
-5 0 -8 -7 -8 -15 0 -8 -5 -15 -11 -15 -5 0 -8 -4 -4 -9 3 -5 -3 -17 -12 -27
-10 -10 -16 -18 -14 -18 3 -1 -3 -13 -13 -28 -10 -15 -22 -26 -26 -23 -5 3 -8
-3 -8 -12 0 -10 -1 -24 -3 -31 -3 -10 8 -15 34 -16 21 -2 33 0 27 4 -7 4 17
10 52 14 34 4 83 13 108 21 25 8 54 15 65 17 11 2 23 7 27 12 3 5 23 9 45 8
24 0 31 2 20 7 -14 5 -8 11 30 31 46 23 53 25 81 28 6 1 12 9 12 17 0 9 8 19
18 22 35 14 162 164 162 193 0 6 5 8 12 4 6 -4 8 -3 4 4 -10 16 14 60 36 65
17 5 19 2 15 -18 -2 -14 0 -22 4 -19 5 3 9 -38 9 -90 0 -52 -4 -98 -10 -101
-6 -3 -10 -1 -10 6 0 7 -3 9 -6 6 -4 -4 -1 -13 5 -21 16 -19 5 -76 -18 -93
-14 -11 -14 -12 -1 -13 12 -1 11 -3 -3 -14 -12 -9 -14 -15 -6 -18 9 -3 8 -8
-2 -19 -8 -8 -15 -21 -17 -29 -5 -21 -42 -80 -51 -80 -4 0 -7 -9 -8 -20 -2
-20 18 -23 45 -7 6 5 12 5 12 1 0 -4 7 1 15 12 8 10 15 15 15 11 0 -4 10 1 22
13 12 11 36 20 52 20 20 0 26 3 18 8 -9 7 -6 14 14 28 14 10 35 28 46 39 11
11 26 20 34 20 7 0 14 5 15 10 0 13 40 55 50 55 9 0 6 -416 -2 -424 -2 -3
-126 -7 -274 -10 -254 -4 -388 -17 -485 -45 -146 -41 -298 -79 -390 -95 -14
-3 -25 -5 -25 -6 0 -5 -124 -31 -145 -31 -46 1 -94 -28 -113 -67 -16 -34 -17
-41 -3 -72 20 -49 45 -72 110 -104 56 -28 60 -28 194 -23 75 2 153 10 172 17
55 20 185 85 200 100 20 20 51 26 95 21 61 -8 69 -13 136 -74 28 -27 71 -56
93 -64 49 -19 182 -22 213 -5 15 8 62 11 150 8 120 -3 132 -5 191 -35 106 -54
207 -61 427 -31 39 6 79 10 90 10 10 1 24 5 30 9 5 5 25 12 43 16 18 3 38 12
45 18 21 19 56 37 72 37 8 0 15 4 15 9 0 10 36 16 225 36 77 9 167 19 200 24
105 15 188 58 210 106 31 70 29 73 -57 107 -47 19 -80 23 -303 28 -179 5 -260
11 -285 21 -27 11 -94 14 -296 14 l-262 0 -6 70 c-4 39 -9 191 -12 340 -3 148
-7 272 -10 274 -8 8 -4 50 5 55 14 9 21 -20 8 -33 -9 -9 -8 -11 4 -6 10 4 19
0 22 -9 4 -9 1 -16 -5 -16 -6 0 1 -9 15 -21 15 -11 26 -26 24 -32 -1 -7 4 -11
11 -10 6 2 12 -3 12 -11 0 -8 7 -17 16 -20 8 -3 12 -11 9 -16 -4 -6 -3 -9 2
-8 4 2 9 -1 10 -5 1 -5 15 -16 31 -25 17 -10 43 -27 59 -40 15 -13 51 -36 78
-51 28 -15 49 -33 47 -41 -2 -10 0 -11 10 -3 17 14 90 -16 83 -34 -2 -7 3 -13
11 -13 8 0 12 5 9 10 -9 14 10 12 52 -5 19 -8 46 -15 59 -15 25 0 32 14 12 26
-7 4 -8 3 -4 -4 4 -7 2 -12 -3 -12 -11 0 -14 9 -14 42 0 10 -3 15 -7 13 -9 -6
-49 76 -53 108 -1 12 -5 24 -8 27 -4 3 -13 30 -22 60 -12 39 -13 58 -5 67 8
10 7 12 -4 8 -16 -6 -33 77 -44 216 -8 95 4 106 47 42 18 -27 38 -51 45 -56 7
-4 11 -14 7 -23 -3 -8 -1 -14 5 -12 10 3 77 -42 113 -75 10 -9 21 -17 23 -17
3 0 40 -22 83 -49 44 -27 88 -51 99 -53 10 -2 18 -9 17 -15 -2 -7 6 -10 17 -8
11 2 26 -2 34 -10 7 -8 16 -12 19 -9 3 3 32 -6 66 -20 33 -14 65 -26 71 -26 6
0 27 -8 48 -17 20 -9 42 -17 47 -18 23 -2 105 -30 105 -35 0 -3 8 -6 18 -6 9
-1 46 -6 82 -13 96 -16 110 -15 110 11 0 12 -3 18 -6 15 -10 -10 -47 12 -95
55 -10 10 -23 18 -27 18 -10 0 -124 118 -145 151 -9 14 -14 29 -10 34 5 4 3 5
-3 2 -16 -9 -25 18 -11 32 8 8 7 11 -5 11 -9 0 -18 9 -21 21 -3 12 -10 19 -15
15 -5 -3 -16 10 -25 29 -10 20 -12 35 -6 35 5 0 -2 12 -16 27 -23 25 -30 43
-26 67 1 4 -3 13 -8 20 -5 6 -12 24 -15 39 -2 15 -7 31 -11 37 -3 5 -1 10 4
10 6 0 11 -5 11 -11 0 -5 5 -7 10 -4 6 3 10 1 10 -6 0 -7 3 -9 7 -6 7 8 33
-11 33 -25 0 -5 -6 -6 -12 -2 -9 5 -8 2 1 -10 10 -11 17 -14 24 -7 7 7 22 2
46 -16 20 -15 38 -30 41 -33 3 -4 13 -9 23 -13 9 -3 17 -14 17 -24 0 -15 2
-16 10 -3 9 13 10 13 10 0 0 -9 10 -16 22 -17 11 -1 24 -6 27 -11 3 -4 27 -19
54 -31 26 -13 47 -27 47 -32 0 -4 8 -5 17 -2 13 5 15 3 9 -13 -5 -15 -4 -16 5
-7 14 14 42 6 32 -10 -3 -6 -1 -7 5 -3 15 9 54 -12 47 -24 -4 -6 2 -9 12 -8
37 3 53 -2 53 -17 0 -8 5 -15 10 -15 6 0 10 4 10 9 0 5 28 0 63 -11 93 -29
186 -47 261 -50 36 -2 66 -6 66 -10 0 -17 19 -7 26 14 7 22 -20 53 -37 43 -12
-8 -59 17 -53 27 3 5 0 9 -7 7 -29 -3 -41 1 -36 14 4 10 -1 13 -17 10 -13 -3
-36 7 -60 26 -21 17 -42 31 -46 31 -17 0 -162 149 -156 159 4 6 0 11 -9 11
-17 0 -53 29 -38 31 4 0 -2 4 -14 9 -16 7 -20 15 -16 32 3 14 1 18 -4 12 -6
-9 -11 -8 -20 1 -10 11 -9 15 9 20 15 5 17 9 8 15 -7 5 -18 6 -25 4 -15 -6
-56 43 -49 60 3 8 1 17 -5 21 -7 4 -8 -1 -4 -12 6 -16 5 -16 -10 -4 -10 8 -15
21 -12 32 3 9 0 21 -6 25 -8 5 -9 3 -4 -6 5 -8 3 -11 -5 -8 -8 2 -17 11 -20
19 -4 8 -12 24 -18 36 -6 12 -8 23 -4 26 4 2 2 2 -5 1 -15 -4 -66 63 -58 76 3
6 -2 10 -12 11 -16 0 -16 1 1 8 19 7 19 8 0 16 -10 4 -23 7 -27 6 -4 0 -10 7
-14 16 -3 10 -17 30 -31 46 -15 16 -20 27 -13 27 8 0 11 6 7 16 -5 14 -1 16
29 11 46 -8 52 6 15 36 -16 14 -30 30 -30 36 0 6 -5 11 -11 11 -5 0 -7 5 -3
12 4 6 3 8 -3 5 -6 -4 -19 6 -29 21 -9 15 -26 35 -37 44 -33 29 -67 80 -60 91
3 6 1 7 -5 3 -14 -9 -54 44 -47 63 3 8 3 12 -1 8 -11 -10 -70 112 -77 160 -6
35 -4 39 15 40 23 2 71 -30 61 -41 -3 -3 1 -6 10 -6 10 0 26 -9 37 -20 11 -11
20 -17 20 -13 0 3 11 -4 25 -17 14 -13 25 -19 25 -14 0 5 4 4 8 -2 12 -17 184
-113 217 -121 40 -9 173 -62 169 -66 -3 -3 4 -3 17 0 12 4 20 2 17 -3 -4 -5
19 -10 50 -12 32 -1 66 -3 77 -5 12 -1 21 5 23 15 2 10 -2 18 -10 18 -7 0 -26
13 -43 28 -16 15 -43 36 -60 46 -54 34 -105 89 -92 99 8 6 5 7 -7 3 -27 -9
-219 184 -210 211 4 12 3 14 -3 6 -6 -9 -20 -1 -50 31 -23 24 -49 57 -59 72
-10 16 -26 34 -34 41 -8 7 -12 13 -9 13 4 0 -7 15 -25 33 -57 61 -76 91 -63
99 8 5 6 8 -5 8 -16 0 -23 11 -19 33 1 5 -3 6 -8 3 -4 -3 -20 12 -35 34 -14
22 -23 40 -19 40 4 0 0 6 -9 12 -24 20 -56 81 -53 101 2 11 1 16 -3 13 -8 -8
-52 34 -52 51 0 7 7 13 15 13 8 0 15 -5 15 -11 0 -5 4 -8 9 -4 5 3 17 -2 25
-11 9 -8 16 -13 16 -10 0 4 25 -7 56 -24 31 -16 64 -30 74 -30 9 0 20 -3 24
-7 8 -9 21 -11 141 -22 55 -5 102 -7 104 -5 2 2 -1 4 -8 4 -7 0 -10 4 -6 10 3
5 -9 17 -27 26 -46 23 -79 50 -71 58 3 3 -2 6 -13 6 -31 0 -119 73 -118 98 0
11 -3 19 -8 16 -4 -3 -13 0 -20 6 -7 6 -22 18 -33 26 -16 13 -17 15 -2 10 9
-3 17 -1 17 4 0 6 -8 10 -19 10 -19 0 -54 44 -54 67 0 7 -4 10 -8 7 -9 -5 -49
48 -49 65 0 6 -4 11 -10 11 -5 0 -19 19 -31 42 -12 23 -28 48 -35 56 -24 23
-36 52 -23 52 8 0 7 5 -2 17 -8 9 -13 19 -12 22 1 3 -1 8 -4 11 -4 3 -3 0 1
-7 3 -6 2 -14 -4 -18 -5 -3 -10 2 -10 12 0 10 -9 24 -20 31 -11 7 -20 19 -20
27 0 8 -6 15 -12 15 -9 0 -8 3 2 10 13 8 13 12 -3 27 -17 17 -18 17 -12 -2 6
-20 6 -20 -9 -1 -8 10 -13 23 -9 29 3 6 1 7 -5 3 -10 -6 -44 44 -41 60 0 4 -6
11 -15 16 -9 5 -16 13 -16 19 0 5 -9 19 -20 31 -34 37 -23 49 22 26 13 -7 23
-21 22 -31 -2 -14 -1 -14 3 -1 3 11 12 14 29 10 34 -9 30 8 -13 62 -21 26 -42
53 -48 60 -5 7 -18 22 -27 32 -34 38 -88 120 -88 134 0 8 -4 18 -10 21 -5 3
-10 14 -9 23 0 10 3 12 5 5 3 -7 12 -9 19 -7 14 6 99 -53 104 -71 4 -17 23
-35 35 -35 6 0 4 5 -4 10 -17 11 -1 13 25 4 13 -6 14 -9 3 -16 -10 -7 -9 -8 4
-4 20 6 88 -30 88 -47 0 -7 5 -5 10 3 8 12 10 12 10 1 0 -8 3 -12 6 -9 3 4 24
-2 47 -12 41 -18 150 -34 160 -23 3 3 -27 31 -66 63 -108 87 -137 114 -137
128 0 7 -7 12 -17 12 -9 0 -14 2 -12 5 3 2 -23 35 -58 72 -34 36 -61 68 -59
71 3 2 -4 12 -15 23 -11 11 -17 25 -13 31 4 6 3 8 -2 5 -10 -5 -100 117 -106
144 -2 7 -10 21 -18 30 -8 10 -24 35 -35 56 -10 21 -28 51 -38 66 -10 15 -16
35 -13 43 3 8 2 12 -4 9 -5 -3 -16 8 -25 25 -8 16 -12 30 -9 30 4 0 -1 9 -10
19 -10 11 -19 32 -21 47 -1 15 -12 36 -24 45 -13 10 -19 24 -15 33 3 9 1 16
-5 16 -14 0 -52 61 -45 72 3 5 1 7 -4 6 -13 -4 -62 67 -62 89 0 8 -16 34 -36
57 -19 22 -38 46 -42 51 -4 6 -20 27 -36 47 -15 20 -25 42 -21 48 4 6 -16 33
-44 61 -28 28 -51 59 -51 70 0 17 8 14 60 -22 62 -42 85 -45 62 -8 -7 11 -10
29 -7 40 5 16 3 20 -10 17 -10 -2 -21 5 -26 15 -18 34 -25 45 -61 93 -29 39
-34 52 -26 68 10 18 20 18 160 14 151 -6 212 2 222 29 3 7 -1 13 -8 13 -7 0
-19 7 -26 15 -7 9 -29 15 -54 15 -23 0 -82 11 -131 25 -50 14 -105 25 -122 25
-42 0 -41 12 2 63 19 22 35 44 35 48 0 4 12 11 28 17 19 6 31 21 41 48 16 45
30 66 40 59 4 -2 8 2 8 10 0 27 -49 16 -93 -21 -33 -26 -50 -34 -67 -29 -17 5
-19 4 -7 -4 12 -9 11 -11 -7 -11 -14 0 -29 -13 -43 -35 -25 -41 -33 -42 -61
-14 -19 19 -20 28 -14 127 4 61 4 103 -1 99 -5 -5 -14 12 -19 38 -8 36 -13 44
-21 34z"/>
<path d="M3980 6634 c0 -8 5 -12 10 -9 6 3 10 10 10 16 0 5 -4 9 -10 9 -5 0
-10 -7 -10 -16z"/>
<path d="M3965 6230 c3 -5 8 -10 11 -10 2 0 4 5 4 10 0 6 -5 10 -11 10 -5 0
-7 -4 -4 -10z"/>
<path d="M4054 6125 c-3 -8 -4 -20 -2 -27 3 -7 7 -1 10 15 6 29 1 36 -8 12z"/>
<path d="M3285 5620 c3 -5 8 -10 11 -10 2 0 4 5 4 10 0 6 -5 10 -11 10 -5 0
-7 -4 -4 -10z"/>
<path d="M4360 5580 c0 -5 5 -10 11 -10 5 0 7 5 4 10 -3 6 -8 10 -11 10 -2 0
-4 -4 -4 -10z"/>
<path d="M4921 4857 c2 -1 13 -9 24 -17 19 -14 19 -14 6 3 -7 9 -18 17 -24 17
-6 0 -8 -1 -6 -3z"/>
<path d="M2656 4387 c3 -10 9 -15 12 -12 3 3 0 11 -7 18 -10 9 -11 8 -5 -6z"/>
<path d="M2686 3992 c-2 -4 4 -8 14 -8 10 0 16 4 14 8 -3 4 -9 8 -14 8 -5 0
-11 -4 -14 -8z"/>
<path d="M2530 3900 c0 -5 5 -10 10 -10 6 0 10 5 10 10 0 6 -4 10 -10 10 -5 0
-10 -4 -10 -10z"/>
<path d="M2720 3870 c0 -5 5 -10 11 -10 5 0 7 5 4 10 -3 6 -8 10 -11 10 -2 0
-4 -4 -4 -10z"/>
<path d="M2106 2242 c-3 -5 1 -9 9 -9 8 0 12 4 9 9 -3 4 -7 8 -9 8 -2 0 -6 -4
-9 -8z"/>
<path d="M2512 2110 c0 -14 2 -19 5 -12 2 6 2 18 0 25 -3 6 -5 1 -5 -13z"/>
<path d="M5191 2034 c0 -11 3 -14 6 -6 3 7 2 16 -1 19 -3 4 -6 -2 -5 -13z"/>
<path d="M5666 2027 c3 -10 9 -15 12 -12 3 3 0 11 -7 18 -10 9 -11 8 -5 -6z"/>
<path d="M5286 1968 c3 -4 9 -8 15 -8 5 0 9 4 9 8 0 5 -7 9 -15 9 -8 0 -12 -4
-9 -9z"/>
<path d="M1720 1905 c-8 -9 -8 -15 -2 -15 12 0 26 19 19 26 -2 2 -10 -2 -17
-11z"/>
<path d="M1950 1871 c0 -6 5 -13 10 -16 6 -3 10 1 10 9 0 9 -4 16 -10 16 -5 0
-10 -4 -10 -9z"/>
<path d="M2898 1858 c-4 -10 -1 -19 8 -22 9 -3 12 -11 8 -18 -4 -7 -3 -9 1 -5
12 10 16 39 5 32 -5 -3 -10 3 -12 12 -3 16 -4 17 -10 1z"/>
<path d="M2579 1793 c-13 -17 -13 -17 6 -3 11 8 22 16 24 17 2 2 0 3 -6 3 -6
0 -17 -8 -24 -17z"/>
<path d="M2454 1709 c-3 -6 2 -18 12 -27 14 -14 16 -14 6 -1 -9 12 -9 18 0 27
9 9 9 12 1 12 -7 0 -15 -5 -19 -11z"/>
<path d="M3274 1635 c-10 -8 -14 -14 -9 -15 15 0 40 18 34 24 -3 3 -14 -1 -25
-9z"/>
<path d="M5040 1636 c0 -2 7 -9 15 -16 9 -7 15 -8 15 -2 0 5 -7 12 -15 16 -8
3 -15 4 -15 2z"/>
<path d="M3695 1560 c-3 -6 1 -7 9 -4 18 7 21 14 7 14 -6 0 -13 -4 -16 -10z"/>
<path d="M5355 1540 c3 -5 8 -10 11 -10 2 0 4 5 4 10 0 6 -5 10 -11 10 -5 0
-7 -4 -4 -10z"/>
<path d="M2720 1519 c0 -5 5 -7 10 -4 6 3 10 8 10 11 0 2 -4 4 -10 4 -5 0 -10
-5 -10 -11z"/>
<path d="M4268 1503 c7 -3 16 -2 19 1 4 3 -2 6 -13 5 -11 0 -14 -3 -6 -6z"/>
</g>
</svg>
